<?xml version="1.0" encoding="UTF-8"?>
<svg width="112px" height="112px" viewBox="0 0 112 112" version="1.1" xmlns="http://www.w3.org/2000/svg" xmlns:xlink="http://www.w3.org/1999/xlink">
    <!-- Generator: Sketch 44.1 (41455) - http://www.bohemiancoding.com/sketch -->
    <title>logo_marchiver</title>
    <desc>Created with Sketch.</desc>
    <defs>
        <path d="M55.9254541,0 C110.033247,0 111.850908,27.9562212 111.850908,55.9718024 C111.850908,83.9874198 106.646005,111.943628 55.9254541,111.943628 C5.20490353,111.943628 0,77.6914353 0,55.9718024 C0,34.2521694 1.81766414,0 55.9254541,0 Z" id="path-1"></path>
        <path d="M66.08504,6.23648941 L66.08504,5.10420235 C66.08504,2.78458353 64.2046259,0.904202353 61.88504,0.904202353 L6.27277412,0.904202353 C3.95317506,0.904202353 2.07277412,2.78458353 2.07277412,5.10420235 L2.07277412,6.23648941 L66.08504,6.23648941 Z M66.08504,8.01392941 L66.08504,38.9182871 C66.08504,41.2378696 64.2046259,43.1182739 61.88504,43.1182739 L6.27277412,43.1182739 C3.95317506,43.1182739 2.07277412,41.2378696 2.07277412,38.9182871 L2.07277412,8.01392941 L66.08504,8.01392941 Z M23.5971812,16.4567529 C22.4373882,16.4567529 21.4971812,17.39696 21.4971812,18.5567529 L21.4971812,22.3552 C21.4971812,23.5149929 22.4373882,24.4552 23.5971812,24.4552 L44.5606165,24.4552 C45.7204094,24.4552 46.6606165,23.5149929 46.6606165,22.3552 L46.6606165,18.5567529 C46.6606165,17.39696 45.7204094,16.4567529 44.5606165,16.4567529 L23.5971812,16.4567529 Z" id="path-3"></path>
        <polygon id="path-5" points="3.17796376 0.169778824 71.0346494 0.169778824 71.0346494 7.51404706 3.17796376 7.51404706"></polygon>
        <path d="M3.19596941,10.3379294 L75.0490259,2.78586824 C75.8180047,2.70506353 76.5069035,3.26288941 76.5877082,4.03186824 L77.3744753,11.5173224 C77.45528,12.2862682 76.8974212,12.9751671 76.1284753,13.0559718 L4.27539906,20.6080329 C3.50643671,20.6888706 2.81755106,20.1310118 2.73672988,19.3620659 L1.949976,11.8766118 C1.86915482,11.1076329 2.42700376,10.4187671 3.19596941,10.3379294 Z" id="path-7"></path>
    </defs>
    <g id="Page-1" stroke="none" stroke-width="1" fill="none" fill-rule="evenodd">
        <g id="logo_marchiver">
            <g id="Group-3">
                <mask id="mask-2" fill="white">
                    <use xlink:href="#path-1"></use>
                </mask>
                <g id="Clip-2"></g>
                <polygon id="Fill-1" fill="#000000" mask="url(#mask-2)" points="-16.4705882 128.414216 128.321496 128.414216 128.321496 -16.4705981 -16.4705882 -16.4705981"></polygon>
            </g>
            <g id="Group-6" transform="translate(23.058824, 39.529412)">
                <mask id="mask-4" fill="white">
                    <use xlink:href="#path-3"></use>
                </mask>
                <g id="Clip-5"></g>
                <polygon id="Fill-4" fill="#FFFFFF" mask="url(#mask-4)" points="-14.3978141 59.5888621 82.5556118 59.5888621 82.5556118 -15.5663991 -14.3978141 -15.5663991"></polygon>
            </g>
            <path d="M23.6723134,49.0703525 C23.6723134,49.0703525 61.8511369,44.8131709 62.3869581,45.2370609" id="Stroke-7" stroke="#000000" stroke-width="4.2"></path>
            <g id="Group-10" transform="translate(19.764706, 39.529412)">
                <mask id="mask-6" fill="white">
                    <use xlink:href="#path-5"></use>
                </mask>
                <g id="Clip-9"></g>
                <polygon id="Fill-8" fill="#000000" mask="url(#mask-6)" points="-13.2926245 23.9846353 87.5052344 23.9846353 87.5052344 -16.3008094 -13.2926245 -16.3008094"></polygon>
            </g>
            <g id="Group-13" transform="translate(16.470588, 26.352941)">
                <mask id="mask-8" fill="white">
                    <use xlink:href="#path-7"></use>
                </mask>
                <g id="Clip-12"></g>
                <polygon id="Fill-11" fill="#FFFFFF" mask="url(#mask-8)" points="-14.5283936 37.0864282 93.8528205 37.0864282 93.8528205 -13.6924941 -14.5283936 -13.6924941"></polygon>
            </g>
        </g>
    </g>
</svg>